<svg width="232" height="72" viewBox="0 0 232 72" fill="none" xmlns="http://www.w3.org/2000/svg">
<rect width="232" height="72" rx="8" fill="white"/>
<rect x="24" y="20" width="32" height="32" rx="4" fill="#3FA96A" fill-opacity="0.2"/>
<mask id="mask0_6_227" style="mask-type:alpha" maskUnits="userSpaceOnUse" x="32" y="28" width="16" height="16">
<rect x="32" y="28" width="16" height="16" fill="#D9D9D9"/>
</mask>
<g mask="url(#mask0_6_227)">
<path d="M41.3333 41.8167V40.45C42.3333 40.1611 43.1389 39.6055 43.75 38.7833C44.3611 37.9611 44.6667 37.0278 44.6667 35.9833C44.6667 34.9389 44.3611 34.0055 43.75 33.1833C43.1389 32.3611 42.3333 31.8055 41.3333 31.5167V30.15C42.7111 30.4611 43.8333 31.1582 44.7 32.2413C45.5667 33.3249 46 34.5722 46 35.9833C46 37.3944 45.5667 38.6415 44.7 39.7247C43.8333 40.8082 42.7111 41.5055 41.3333 41.8167ZM34 38V34H36.6667L40 30.6667V41.3333L36.6667 38H34ZM41.3333 38.6667V33.3C41.8556 33.5444 42.264 33.9111 42.5587 34.4C42.8529 34.8889 43 35.4222 43 36C43 36.5667 42.8529 37.0916 42.5587 37.5747C42.264 38.0582 41.8556 38.4222 41.3333 38.6667Z" fill="#3FA96A"/>
</g>
<path d="M74.304 42L75.248 39.296H79.616L80.56 42H82.72L78.496 30.304H76.4L72.176 42H74.304ZM77.184 33.792C77.296 33.472 77.392 33.12 77.44 32.896C77.472 33.136 77.584 33.488 77.68 33.792L79.024 37.568H75.856L77.184 33.792ZM88.9618 34.096V38.24C88.9618 39.744 88.3698 40.464 87.1378 40.464C86.0498 40.464 85.4578 39.856 85.4578 38.352V34.096H83.5058V39.04C83.5058 40.976 84.5778 42.208 86.4018 42.208C87.4578 42.208 88.4818 41.696 88.9618 40.944L89.1058 42H90.9138V34.096H88.9618ZM96.0216 42.208C97.2216 42.208 98.2456 41.68 98.7256 40.768L98.8536 42H100.646V30.096H98.7096V35.104C98.2136 34.32 97.2376 33.856 96.1336 33.856C93.7496 33.856 92.3096 35.616 92.3096 38.08C92.3096 40.528 93.7336 42.208 96.0216 42.208ZM96.4536 40.416C95.0936 40.416 94.2616 39.424 94.2616 38.016C94.2616 36.608 95.0936 35.6 96.4536 35.6C97.8136 35.6 98.6936 36.592 98.6936 38.016C98.6936 39.44 97.8136 40.416 96.4536 40.416ZM103.656 32.512C104.296 32.512 104.824 31.984 104.824 31.328C104.824 30.672 104.296 30.16 103.656 30.16C102.984 30.16 102.456 30.672 102.456 31.328C102.456 31.984 102.984 32.512 103.656 32.512ZM102.68 42H104.632V34.096H102.68V42ZM106.185 38.032C106.185 40.496 107.961 42.192 110.409 42.192C112.857 42.192 114.633 40.496 114.633 38.032C114.633 35.568 112.857 33.872 110.409 33.872C107.961 33.872 106.185 35.568 106.185 38.032ZM108.137 38.032C108.137 36.592 109.065 35.616 110.409 35.616C111.753 35.616 112.681 36.592 112.681 38.032C112.681 39.472 111.753 40.448 110.409 40.448C109.065 40.448 108.137 39.472 108.137 38.032ZM125.724 42.192C128.492 42.192 130.636 40.56 131.084 38.096H128.956C128.572 39.392 127.356 40.224 125.772 40.224C123.628 40.224 122.252 38.624 122.252 36.144C122.252 33.648 123.612 32.08 125.772 32.08C127.324 32.08 128.492 32.88 128.892 34.24H131.052C130.652 31.728 128.588 30.112 125.82 30.112C122.396 30.112 120.108 32.528 120.108 36.16C120.108 39.824 122.316 42.192 125.724 42.192ZM134.523 42V30.096H132.587V42H134.523ZM138.923 42.208C140.155 42.208 141.227 41.648 141.563 40.832L141.707 42H143.419V37.2C143.419 35.008 142.107 33.856 139.979 33.856C137.835 33.856 136.427 34.976 136.427 36.688H138.091C138.091 35.856 138.731 35.376 139.883 35.376C140.875 35.376 141.515 35.808 141.515 36.88V37.056L139.147 37.232C137.275 37.376 136.219 38.288 136.219 39.744C136.219 41.232 137.243 42.208 138.923 42.208ZM139.562 40.736C138.683 40.736 138.203 40.384 138.203 39.664C138.203 39.024 138.667 38.624 139.883 38.512L141.531 38.384V38.8C141.531 40.016 140.763 40.736 139.562 40.736ZM144.728 39.6C144.728 41.152 145.976 42.208 147.944 42.208C149.896 42.208 151.256 41.216 151.256 39.616C151.256 38.4 150.584 37.792 149.256 37.488L147.832 37.152C147.16 36.992 146.808 36.704 146.808 36.256C146.808 35.664 147.256 35.312 148.024 35.312C148.776 35.312 149.224 35.744 149.24 36.416H151.096C151.08 34.88 149.88 33.856 148.104 33.856C146.28 33.856 144.968 34.784 144.968 36.336C144.968 37.6 145.656 38.272 147.08 38.592L148.504 38.928C149.208 39.088 149.416 39.376 149.416 39.776C149.416 40.352 148.92 40.72 148.008 40.72C147.112 40.72 146.6 40.288 146.584 39.6H144.728ZM152.134 39.6C152.134 41.152 153.382 42.208 155.35 42.208C157.302 42.208 158.662 41.216 158.662 39.616C158.662 38.4 157.99 37.792 156.662 37.488L155.238 37.152C154.566 36.992 154.214 36.704 154.214 36.256C154.214 35.664 154.662 35.312 155.43 35.312C156.182 35.312 156.63 35.744 156.646 36.416H158.502C158.486 34.88 157.286 33.856 155.51 33.856C153.686 33.856 152.374 34.784 152.374 36.336C152.374 37.6 153.062 38.272 154.486 38.592L155.91 38.928C156.614 39.088 156.822 39.376 156.822 39.776C156.822 40.352 156.326 40.72 155.414 40.72C154.518 40.72 154.006 40.288 153.99 39.6H152.134ZM163.685 42.208C165.749 42.208 167.189 41.168 167.525 39.44H165.717C165.493 40.192 164.789 40.608 163.717 40.608C162.421 40.608 161.685 39.904 161.541 38.512L167.493 38.496V37.904C167.493 35.44 165.989 33.856 163.621 33.856C161.301 33.856 159.685 35.568 159.685 38.048C159.685 40.496 161.333 42.208 163.685 42.208ZM163.637 35.456C164.805 35.456 165.557 36.176 165.557 37.264H161.589C161.781 36.08 162.485 35.456 163.637 35.456ZM168.447 39.6C168.447 41.152 169.695 42.208 171.663 42.208C173.615 42.208 174.975 41.216 174.975 39.616C174.975 38.4 174.303 37.792 172.975 37.488L171.551 37.152C170.879 36.992 170.527 36.704 170.527 36.256C170.527 35.664 170.975 35.312 171.743 35.312C172.495 35.312 172.943 35.744 172.959 36.416H174.815C174.799 34.88 173.599 33.856 171.823 33.856C169.999 33.856 168.687 34.784 168.687 36.336C168.687 37.6 169.375 38.272 170.799 38.592L172.223 38.928C172.927 39.088 173.135 39.376 173.135 39.776C173.135 40.352 172.639 40.72 171.727 40.72C170.831 40.72 170.319 40.288 170.303 39.6H168.447Z" fill="#000F24"/>
</svg>
