<svg width="207" height="72" viewBox="0 0 207 72" fill="none" xmlns="http://www.w3.org/2000/svg">
<rect width="207" height="72" rx="8" fill="white"/>
<rect x="24" y="20" width="32" height="32" rx="4" fill="#5978CF" fill-opacity="0.2"/>
<mask id="mask0_6_242" style="mask-type:alpha" maskUnits="userSpaceOnUse" x="32" y="28" width="16" height="16">
<rect x="32" y="28" width="16" height="16" fill="#D9D9D9"/>
</mask>
<g mask="url(#mask0_6_242)">
<path d="M37.3334 40H42.6667V38.6667H37.3334V40ZM37.3334 37.3333H42.6667V36H37.3334V37.3333ZM36.0001 42.6667C35.6334 42.6667 35.3196 42.5362 35.0587 42.2753C34.7974 42.014 34.6667 41.7 34.6667 41.3333V30.6667C34.6667 30.3 34.7974 29.986 35.0587 29.7247C35.3196 29.4638 35.6334 29.3333 36.0001 29.3333H41.3334L45.3334 33.3333V41.3333C45.3334 41.7 45.203 42.014 44.9421 42.2753C44.6807 42.5362 44.3667 42.6667 44.0001 42.6667H36.0001ZM40.6667 34V30.6667H36.0001V41.3333H44.0001V34H40.6667Z" fill="#5978CF"/>
</g>
<path d="M76.72 42.192C79.328 42.192 81.104 40.464 81.104 37.936C81.104 35.632 79.552 34.048 77.216 34.048C76.416 34.048 75.712 34.256 75.152 34.624L75.776 32.192H80.4V30.304H74.304L72.864 36.432L74.672 36.816C75.088 36.208 75.904 35.76 76.8 35.76C78.208 35.76 79.024 36.688 79.024 38.048C79.024 39.472 78.144 40.368 76.768 40.368C75.472 40.368 74.688 39.584 74.688 38.256H72.656C72.656 40.624 74.272 42.192 76.72 42.192ZM82.2818 36.176C82.2818 39.792 84.1218 42.208 87.2258 42.208C90.3298 42.208 92.1858 39.792 92.1858 36.176C92.1858 32.544 90.2178 30.08 87.2258 30.08C84.2338 30.08 82.2818 32.544 82.2818 36.176ZM84.2978 36.176C84.2978 33.408 85.3858 31.888 87.2258 31.888C89.0818 31.888 90.1698 33.408 90.1698 36.176C90.1698 38.88 89.0818 40.4 87.2258 40.4C85.3858 40.4 84.2978 38.88 84.2978 36.176ZM94.155 35.792V37.424H97.339V40.624H98.971V37.424H102.155V35.792H98.971V32.608H97.339V35.792H94.155ZM111.062 42V33.712L116.566 42H118.582V30.304H116.566V38.592L111.078 30.304H109.046V42H111.062ZM120.419 38.032C120.419 40.496 122.195 42.192 124.643 42.192C127.091 42.192 128.867 40.496 128.867 38.032C128.867 35.568 127.091 33.872 124.643 33.872C122.195 33.872 120.419 35.568 120.419 38.032ZM122.371 38.032C122.371 36.592 123.299 35.616 124.643 35.616C125.987 35.616 126.915 36.592 126.915 38.032C126.915 39.472 125.987 40.448 124.643 40.448C123.299 40.448 122.371 39.472 122.371 38.032ZM133.024 42V35.728H134.56V34.096H133.024V31.632H131.072V34.096H129.552V35.728H131.072V42H133.024ZM139.232 42.208C141.296 42.208 142.736 41.168 143.072 39.44H141.264C141.04 40.192 140.336 40.608 139.264 40.608C137.968 40.608 137.232 39.904 137.088 38.512L143.04 38.496V37.904C143.04 35.44 141.536 33.856 139.168 33.856C136.848 33.856 135.232 35.568 135.232 38.048C135.232 40.496 136.88 42.208 139.232 42.208ZM139.184 35.456C140.352 35.456 141.104 36.176 141.104 37.264H137.136C137.328 36.08 138.032 35.456 139.184 35.456ZM143.994 39.6C143.994 41.152 145.242 42.208 147.21 42.208C149.162 42.208 150.522 41.216 150.522 39.616C150.522 38.4 149.85 37.792 148.522 37.488L147.098 37.152C146.426 36.992 146.074 36.704 146.074 36.256C146.074 35.664 146.522 35.312 147.29 35.312C148.042 35.312 148.49 35.744 148.506 36.416H150.362C150.346 34.88 149.146 33.856 147.37 33.856C145.546 33.856 144.234 34.784 144.234 36.336C144.234 37.6 144.922 38.272 146.346 38.592L147.77 38.928C148.474 39.088 148.682 39.376 148.682 39.776C148.682 40.352 148.186 40.72 147.274 40.72C146.378 40.72 145.866 40.288 145.85 39.6H143.994Z" fill="#000F24"/>
</svg>
