<svg width="261" height="72" viewBox="0 0 261 72" fill="none" xmlns="http://www.w3.org/2000/svg">
<rect width="261" height="72" rx="8" fill="white"/>
<rect x="24" y="20" width="32" height="32" rx="4" fill="#9269CD" fill-opacity="0.2"/>
<mask id="mask0_6_235" style="mask-type:alpha" maskUnits="userSpaceOnUse" x="32" y="28" width="16" height="16">
<rect x="32" y="28" width="16" height="16" fill="#D9D9D9"/>
</mask>
<g mask="url(#mask0_6_235)">
<path d="M38.3334 39V33L43.0001 36L38.3334 39ZM40.0001 43.3333C38.8001 43.3333 37.6752 43.0582 36.6254 42.508C35.5752 41.9582 34.7001 41.1889 34.0001 40.2V42H32.6667V38H36.6667V39.3333H35.0334C35.6001 40.1667 36.3194 40.8196 37.1914 41.292C38.0639 41.764 39.0001 42 40.0001 42C41.2779 42 42.4361 41.6333 43.4747 40.9C44.5139 40.1667 45.2445 39.1944 45.6667 37.9833L46.9667 38.2833C46.4667 39.7944 45.5779 41.014 44.3001 41.942C43.0223 42.8696 41.589 43.3333 40.0001 43.3333ZM32.7001 35.3333C32.7779 34.5889 32.9556 33.8749 33.2334 33.1913C33.5112 32.5082 33.8945 31.8778 34.3834 31.3L35.3334 32.25C34.9779 32.7056 34.689 33.1916 34.4667 33.708C34.2445 34.2249 34.1056 34.7667 34.0501 35.3333H32.7001ZM36.2667 31.3167L35.3167 30.3667C35.9056 29.8778 36.539 29.4916 37.2167 29.208C37.8945 28.9249 38.6001 28.7556 39.3334 28.7V30.0333C38.7667 30.0889 38.2279 30.2278 37.7167 30.45C37.2056 30.6722 36.7223 30.9611 36.2667 31.3167ZM43.7501 31.3167C43.2945 30.9611 42.8085 30.6722 42.2921 30.45C41.7752 30.2278 41.2334 30.0889 40.6667 30.0333V28.7C41.4112 28.7667 42.125 28.9389 42.8081 29.2167C43.4916 29.4944 44.1223 29.8778 44.7001 30.3667L43.7501 31.3167ZM45.9667 35.3333C45.9112 34.7667 45.7723 34.2249 45.5501 33.708C45.3279 33.1916 45.039 32.7056 44.6834 32.25L45.6334 31.3C46.1223 31.8778 46.5056 32.5082 46.7834 33.1913C47.0612 33.8749 47.2334 34.5889 47.3001 35.3333H45.9667Z" fill="#9269CD"/>
</g>
<path d="M75.344 42V37.632H77.856L79.84 42H82.08L79.856 37.2C81.232 36.64 81.968 35.52 81.968 33.952C81.968 31.648 80.416 30.304 77.76 30.304H73.296V42H75.344ZM75.344 32.128H77.76C79.056 32.128 79.824 32.784 79.824 33.952C79.824 35.136 79.056 35.824 77.76 35.824H75.344V32.128ZM86.7003 42.208C88.7643 42.208 90.2043 41.168 90.5403 39.44H88.7323C88.5083 40.192 87.8043 40.608 86.7323 40.608C85.4363 40.608 84.7003 39.904 84.5563 38.512L90.5083 38.496V37.904C90.5083 35.44 89.0043 33.856 86.6363 33.856C84.3163 33.856 82.7003 35.568 82.7003 38.048C82.7003 40.496 84.3483 42.208 86.7003 42.208ZM86.6523 35.456C87.8203 35.456 88.5723 36.176 88.5723 37.264H84.6043C84.7963 36.08 85.5003 35.456 86.6523 35.456ZM91.6065 38.032C91.6065 40.544 93.1745 42.208 95.5745 42.208C97.6385 42.208 99.1745 40.944 99.4145 39.104H97.4465C97.2385 39.968 96.5505 40.448 95.5745 40.448C94.3265 40.448 93.5585 39.52 93.5585 38.032C93.5585 36.544 94.3905 35.6 95.6385 35.6C96.5665 35.6 97.2225 36.064 97.4465 36.96H99.3985C99.1905 35.056 97.7185 33.856 95.5585 33.856C93.2225 33.856 91.6065 35.584 91.6065 38.032ZM100.403 38.032C100.403 40.496 102.179 42.192 104.627 42.192C107.075 42.192 108.851 40.496 108.851 38.032C108.851 35.568 107.075 33.872 104.627 33.872C102.179 33.872 100.403 35.568 100.403 38.032ZM102.355 38.032C102.355 36.592 103.283 35.616 104.627 35.616C105.971 35.616 106.899 36.592 106.899 38.032C106.899 39.472 105.971 40.448 104.627 40.448C103.283 40.448 102.355 39.472 102.355 38.032ZM115.359 34.064C115.039 33.984 114.767 33.952 114.495 33.952C113.439 33.952 112.687 34.48 112.351 35.264L112.239 34.112H110.399V42H112.351V38.16C112.351 36.624 113.231 35.872 114.639 35.872H115.359V34.064ZM119.662 42.208C120.862 42.208 121.886 41.68 122.366 40.768L122.494 42H124.286V30.096H122.35V35.104C121.854 34.32 120.878 33.856 119.774 33.856C117.39 33.856 115.95 35.616 115.95 38.08C115.95 40.528 117.374 42.208 119.662 42.208ZM120.094 40.416C118.734 40.416 117.902 39.424 117.902 38.016C117.902 36.608 118.734 35.6 120.094 35.6C121.454 35.6 122.334 36.592 122.334 38.016C122.334 39.44 121.454 40.416 120.094 40.416ZM129.857 42.208C131.921 42.208 133.361 41.168 133.697 39.44H131.889C131.665 40.192 130.961 40.608 129.889 40.608C128.593 40.608 127.857 39.904 127.713 38.512L133.665 38.496V37.904C133.665 35.44 132.161 33.856 129.793 33.856C127.473 33.856 125.857 35.568 125.857 38.048C125.857 40.496 127.505 42.208 129.857 42.208ZM129.809 35.456C130.977 35.456 131.729 36.176 131.729 37.264H127.761C127.953 36.08 128.657 35.456 129.809 35.456ZM138.475 42.208C139.675 42.208 140.699 41.68 141.179 40.768L141.307 42H143.099V30.096H141.163V35.104C140.667 34.32 139.691 33.856 138.587 33.856C136.203 33.856 134.763 35.616 134.763 38.08C134.763 40.528 136.187 42.208 138.475 42.208ZM138.907 40.416C137.547 40.416 136.715 39.424 136.715 38.016C136.715 36.608 137.547 35.6 138.907 35.6C140.267 35.6 141.147 36.592 141.147 38.016C141.147 39.44 140.267 40.416 138.907 40.416ZM154.678 42.192C157.446 42.192 159.59 40.56 160.038 38.096H157.91C157.526 39.392 156.31 40.224 154.726 40.224C152.582 40.224 151.206 38.624 151.206 36.144C151.206 33.648 152.566 32.08 154.726 32.08C156.278 32.08 157.446 32.88 157.845 34.24H160.006C159.606 31.728 157.542 30.112 154.774 30.112C151.35 30.112 149.062 32.528 149.062 36.16C149.062 39.824 151.27 42.192 154.678 42.192ZM163.476 42V30.096H161.54V42H163.476ZM167.876 42.208C169.108 42.208 170.18 41.648 170.516 40.832L170.66 42H172.372V37.2C172.372 35.008 171.06 33.856 168.932 33.856C166.788 33.856 165.38 34.976 165.38 36.688H167.044C167.044 35.856 167.684 35.376 168.836 35.376C169.828 35.376 170.468 35.808 170.468 36.88V37.056L168.1 37.232C166.228 37.376 165.172 38.288 165.172 39.744C165.172 41.232 166.196 42.208 167.876 42.208ZM168.516 40.736C167.636 40.736 167.156 40.384 167.156 39.664C167.156 39.024 167.62 38.624 168.836 38.512L170.484 38.384V38.8C170.484 40.016 169.716 40.736 168.516 40.736ZM173.681 39.6C173.681 41.152 174.929 42.208 176.897 42.208C178.849 42.208 180.209 41.216 180.209 39.616C180.209 38.4 179.537 37.792 178.209 37.488L176.785 37.152C176.113 36.992 175.761 36.704 175.761 36.256C175.761 35.664 176.209 35.312 176.977 35.312C177.729 35.312 178.177 35.744 178.193 36.416H180.049C180.033 34.88 178.833 33.856 177.057 33.856C175.233 33.856 173.921 34.784 173.921 36.336C173.921 37.6 174.609 38.272 176.033 38.592L177.457 38.928C178.161 39.088 178.369 39.376 178.369 39.776C178.369 40.352 177.873 40.72 176.961 40.72C176.065 40.72 175.553 40.288 175.537 39.6H173.681ZM181.088 39.6C181.088 41.152 182.336 42.208 184.304 42.208C186.256 42.208 187.616 41.216 187.616 39.616C187.616 38.4 186.944 37.792 185.616 37.488L184.192 37.152C183.52 36.992 183.168 36.704 183.168 36.256C183.168 35.664 183.616 35.312 184.384 35.312C185.136 35.312 185.584 35.744 185.6 36.416H187.456C187.44 34.88 186.24 33.856 184.464 33.856C182.64 33.856 181.328 34.784 181.328 36.336C181.328 37.6 182.016 38.272 183.44 38.592L184.864 38.928C185.568 39.088 185.776 39.376 185.776 39.776C185.776 40.352 185.28 40.72 184.368 40.72C183.472 40.72 182.96 40.288 182.944 39.6H181.088ZM192.638 42.208C194.702 42.208 196.142 41.168 196.478 39.44H194.67C194.446 40.192 193.742 40.608 192.67 40.608C191.374 40.608 190.638 39.904 190.494 38.512L196.446 38.496V37.904C196.446 35.44 194.942 33.856 192.574 33.856C190.254 33.856 188.638 35.568 188.638 38.048C188.638 40.496 190.286 42.208 192.638 42.208ZM192.59 35.456C193.758 35.456 194.51 36.176 194.51 37.264H190.542C190.734 36.08 191.438 35.456 192.59 35.456ZM197.4 39.6C197.4 41.152 198.648 42.208 200.616 42.208C202.568 42.208 203.928 41.216 203.928 39.616C203.928 38.4 203.256 37.792 201.928 37.488L200.504 37.152C199.832 36.992 199.48 36.704 199.48 36.256C199.48 35.664 199.928 35.312 200.696 35.312C201.448 35.312 201.896 35.744 201.912 36.416H203.768C203.752 34.88 202.552 33.856 200.776 33.856C198.952 33.856 197.64 34.784 197.64 36.336C197.64 37.6 198.328 38.272 199.752 38.592L201.176 38.928C201.88 39.088 202.088 39.376 202.088 39.776C202.088 40.352 201.592 40.72 200.68 40.72C199.784 40.72 199.272 40.288 199.256 39.6H197.4Z" fill="#000F24"/>
</svg>
