<svg width="1727" height="158" viewBox="0 0 1727 158" fill="none" xmlns="http://www.w3.org/2000/svg">
<rect width="1727" height="158" fill="#CCDBF0"/>
<g clip-path="url(#clip0_6_423)">
<path d="M335.16 93.2445H312.131C310.603 93.2445 309.188 92.4541 308.453 91.0992C307.661 89.5184 307.943 87.6553 309.188 86.4697L325.201 70.4924H313.715C310.546 70.4924 308 67.8953 308 64.7902H329.219C330.746 64.7902 332.161 65.5806 332.897 66.9356C333.689 68.5164 333.406 70.3795 332.161 71.565L316.148 87.5424H329.445C332.614 87.5424 335.16 90.1394 335.16 93.2445ZM426.372 64.3386C423.09 64.3386 420.091 65.75 418.054 68.0647C416.017 65.8064 413.018 64.3386 409.737 64.3386C403.626 64.3386 398.59 69.5326 398.59 75.6299V93.2445C401.758 93.2445 404.305 90.7039 404.305 87.5424V75.5735C404.305 72.6377 406.568 70.1536 409.51 70.0407C412.622 69.9278 415.169 72.4119 415.169 75.4606V87.5424C415.169 90.7039 417.715 93.2445 420.883 93.2445V75.5735C420.883 72.6377 423.147 70.1536 426.089 70.0407C429.201 69.9278 431.747 72.4119 431.747 75.4606V87.5424C431.747 90.7039 434.294 93.2445 437.462 93.2445V75.6299C437.519 69.5326 432.483 64.3386 426.372 64.3386ZM364.017 79.0174C364.017 87.0907 357.397 93.6962 349.306 93.6962C341.158 93.6962 334.594 87.0907 334.594 79.0174C334.594 70.944 341.214 64.3386 349.306 64.3386C357.397 64.3386 364.017 70.944 364.017 79.0174ZM358.302 79.0174C358.302 74.0492 354.285 70.0407 349.306 70.0407C344.326 70.0407 340.309 74.0492 340.309 79.0174C340.309 83.9856 344.326 87.994 349.306 87.994C354.285 87.994 358.302 83.9856 358.302 79.0174ZM395.76 79.0174C395.76 87.0907 389.14 93.6962 381.049 93.6962C372.901 93.6962 366.337 87.0907 366.337 79.0174C366.337 70.944 372.957 64.3386 381.049 64.3386C389.14 64.3386 395.76 70.944 395.76 79.0174ZM390.046 79.0174C390.046 74.0492 386.028 70.0407 381.049 70.0407C376.07 70.0407 372.052 74.0492 372.052 79.0174C372.052 83.9856 376.07 87.994 381.049 87.994C386.028 87.994 390.046 83.9856 390.046 79.0174Z" fill="white"/>
</g>
<path fill-rule="evenodd" clip-rule="evenodd" d="M640.661 79.9192C640.661 70.685 636.2 63.3986 627.674 63.3986C619.111 63.3986 613.93 70.6849 613.93 79.847C613.93 90.7045 620.046 96.1873 628.825 96.1873C633.106 96.1873 636.344 95.2134 638.791 93.8427V86.6284C636.344 87.8549 633.538 88.6124 629.976 88.6124C626.486 88.6124 623.392 87.3859 622.996 83.1295H640.589C640.589 82.6606 640.661 80.7849 640.661 79.9192ZM622.889 76.4924C622.889 72.4164 625.371 70.721 627.638 70.721C629.832 70.721 632.171 72.4164 632.171 76.4924H622.889Z" fill="white"/>
<path fill-rule="evenodd" clip-rule="evenodd" d="M600.043 63.3986C596.517 63.3986 594.251 65.0578 592.992 66.2121L592.524 63.9757H584.609V106.035L593.603 104.123L593.639 93.9148C594.934 94.8527 596.841 96.1873 600.007 96.1873C606.447 96.1873 612.312 90.9931 612.312 79.5585C612.276 69.0978 606.339 63.3986 600.043 63.3986ZM597.885 88.2516C595.762 88.2516 594.503 87.4942 593.639 86.5563L593.603 73.1739C594.539 72.1278 595.834 71.4064 597.885 71.4064C601.159 71.4064 603.425 75.0856 603.425 79.811C603.425 84.6445 601.194 88.2516 597.885 88.2516Z" fill="white"/>
<path fill-rule="evenodd" clip-rule="evenodd" d="M572.233 61.2703L581.263 59.3225V52L572.233 53.9118V61.2703Z" fill="white"/>
<path d="M581.263 64.0118H572.233V95.5741H581.263V64.0118Z" fill="white"/>
<path fill-rule="evenodd" clip-rule="evenodd" d="M562.555 66.681L561.979 64.0118H554.208V95.5741H563.202V74.1839C565.325 71.4064 568.923 71.9114 570.038 72.3082V64.0118C568.887 63.5789 564.677 62.7853 562.555 66.681Z" fill="white"/>
<path fill-rule="evenodd" clip-rule="evenodd" d="M544.566 56.1843L535.787 58.06L535.751 86.953C535.751 92.2916 539.745 96.2234 545.069 96.2234C548.02 96.2234 550.178 95.6823 551.365 95.033V87.7105C550.214 88.1795 544.53 89.8387 544.53 84.5002V71.6949H551.365V64.0117H544.53L544.566 56.1843Z" fill="white"/>
<path fill-rule="evenodd" clip-rule="evenodd" d="M520.245 73.1739C520.245 71.7671 521.396 71.226 523.303 71.226C526.037 71.226 529.491 72.0557 532.226 73.5346V65.0578C529.239 63.8675 526.289 63.3986 523.303 63.3986C516 63.3986 511.143 67.2221 511.143 73.6067C511.143 83.5624 524.814 81.9752 524.814 86.2677C524.814 87.927 523.375 88.4681 521.36 88.4681C518.374 88.4681 514.561 87.2417 511.539 85.5824V94.1673C514.884 95.6102 518.266 96.2234 521.36 96.2234C528.844 96.2234 533.989 92.508 533.989 86.0513C533.953 75.3021 520.245 77.2138 520.245 73.1739Z" fill="white"/>
<g clip-path="url(#clip1_6_423)">
<path d="M718.417 89.5495C717.682 89.5512 716.961 89.3578 716.326 88.9894C715.691 88.6209 715.165 88.0905 714.802 87.4523C714.445 86.8186 714.267 86.0997 714.287 85.3725C714.307 84.6453 714.524 83.9372 714.916 83.3241L722.359 71.6364C722.74 71.0082 723.28 70.4925 723.926 70.1417C724.571 69.791 725.298 69.6179 726.033 69.6401C726.766 69.6577 727.482 69.8699 728.107 70.255C728.732 70.6401 729.243 71.1843 729.588 71.8319C730.282 73.1439 730.196 74.7223 729.365 75.9538L721.927 87.6415C721.549 88.2293 721.03 88.7123 720.416 89.0459C719.803 89.3794 719.115 89.5527 718.417 89.5495Z" fill="white"/>
<path d="M731.182 89.5492C729.681 89.5492 728.3 88.7466 727.575 87.4567C727.218 86.8248 727.04 86.1077 727.06 85.3824C727.08 84.6571 727.297 83.9509 727.688 83.3395L735.117 71.6786C735.492 71.0417 736.031 70.5167 736.677 70.1582C737.324 69.7997 738.055 69.6207 738.794 69.6397C740.308 69.6729 741.679 70.5196 742.373 71.8442C743.062 73.1688 742.961 74.7567 742.105 75.985L734.678 87.6459C734.302 88.2312 733.785 88.7124 733.174 89.045C732.563 89.3776 731.878 89.551 731.182 89.5492Z" fill="white"/>
<path d="M743.663 89.647C745.78 89.647 747.495 87.9675 747.495 85.8956C747.495 83.8238 745.78 82.1443 743.663 82.1443C741.547 82.1443 739.832 83.8238 739.832 85.8956C739.832 87.9675 741.547 89.647 743.663 89.647Z" fill="white"/>
<path d="M910.123 82.3619C911.281 82.3619 911.973 83.185 911.973 84.5332V89.1534H913.545V84.4276C913.545 82.1348 912.465 80.8055 910.434 80.8055C909.639 80.8055 908.378 81.0231 907.626 82.4849C907.451 82.0537 907.163 81.678 906.791 81.3976C906.42 81.1171 905.98 80.9425 905.518 80.8923C905.226 80.8389 904.93 80.8215 904.634 80.8402C903.988 80.8923 902.837 81.2944 902.406 82.2058V80.9806H900.833V89.1534H902.406V84.743C902.406 83.0273 903.529 82.3619 904.653 82.3619C905.707 82.3619 906.399 83.1677 906.399 84.5159V89.1534H907.963V84.743C907.963 83.3774 908.783 82.3461 910.123 82.3619ZM895.057 87.7879C895.776 87.8036 896.47 87.5167 896.973 86.9963C897.477 86.4759 897.745 85.7679 897.718 85.041C897.718 83.3947 896.507 82.3619 895.057 82.3619C893.605 82.3619 892.395 83.3947 892.395 85.041C892.367 85.7663 892.635 86.4728 893.136 86.9916C893.638 87.5119 894.328 87.8005 895.044 87.7879H895.057ZM895.057 89.3206C892.758 89.3206 890.839 87.6223 890.839 85.0315C890.839 82.4407 892.758 80.7961 895.057 80.7961C897.356 80.7961 899.291 82.4407 899.291 85.0315C899.291 87.6223 897.345 89.3285 895.046 89.3285L895.057 89.3206ZM882.742 85.0315L882.726 85.041C882.726 82.4502 884.695 80.8055 887.01 80.7961C887.592 80.7848 888.169 80.8958 888.705 81.1218C889.241 81.3478 889.723 81.6838 890.121 82.108L888.929 83.1235C888.676 82.8749 888.376 82.6789 888.047 82.5468C887.717 82.4147 887.365 82.3492 887.01 82.354C885.56 82.354 884.298 83.3869 884.298 85.0315C884.298 86.1432 884.959 87.1445 885.973 87.5703C886.987 87.996 888.153 87.7595 888.929 86.9742L890.139 87.9897C889.74 88.4183 889.255 88.7583 888.716 88.9876C888.177 89.2168 887.596 89.3303 887.01 89.3206C884.713 89.3206 882.742 87.6223 882.742 85.0315ZM877.707 87.5845C877.705 87.4416 877.732 87.2998 877.785 87.1671C877.838 87.0345 877.917 86.9136 878.017 86.8114C878.116 86.7092 878.235 86.6276 878.367 86.5714C878.498 86.5152 878.639 86.4855 878.782 86.4838C878.925 86.4855 879.066 86.5152 879.198 86.5714C879.329 86.6276 879.448 86.7092 879.548 86.8114C879.648 86.9136 879.727 87.0345 879.78 87.1671C879.833 87.2998 879.859 87.4416 879.858 87.5845C879.844 87.8612 879.725 88.1221 879.525 88.3141C879.325 88.506 879.059 88.6144 878.782 88.6173C878.505 88.6144 878.24 88.506 878.04 88.3141C877.84 88.1221 877.721 87.8612 877.707 87.5845Z" fill="white"/>
<path fill-rule="evenodd" clip-rule="evenodd" d="M882.009 70.5906H876.409L872.484 80.7093L868.58 70.5906H862.981L869.788 86.58L865.554 97.1513H871.113L882.009 70.5906ZM847.955 79.4841C847.955 82.0386 850.188 83.7195 852.381 83.7195C854.537 83.7195 856.655 82.1553 856.655 79.4825C856.655 76.8097 854.537 75.2439 852.381 75.2439C850.188 75.2439 847.955 76.928 847.955 79.4841ZM856.655 88.4123V86.3892C855.519 88.1079 852.87 88.7576 851.511 88.7576C847.011 88.7576 842.509 85.2097 842.509 79.4825C842.509 73.7569 847.009 70.209 851.511 70.209C852.645 70.209 855.294 70.5874 856.655 72.5743V70.5969H861.874V88.4154L856.655 88.4123ZM841.023 88.4123H835.804V86.1984C834.932 87.8383 832.818 88.7939 830.623 88.7939C826.083 88.7939 822.073 85.1687 822.073 79.555C822.073 73.8358 826.083 70.2058 830.623 70.2058C832.814 70.2058 834.935 71.1204 835.804 72.7619V60.8834H841.023V88.4123ZM835.691 79.4431C835.691 76.7719 833.762 75.2061 831.607 75.2061C829.374 75.2061 827.519 76.8854 827.519 79.4431C827.519 82.0828 829.374 83.7542 831.605 83.7542C833.802 83.7574 835.691 82.0008 835.691 79.4431ZM809.168 78.9826C809.168 76.2736 810.568 75.3574 812.421 75.3574C814.198 75.3574 815.485 76.5401 815.485 78.9054V88.4091H820.742V77.7622C820.742 72.6878 818.244 70.2058 814.272 70.2058C812.193 70.2058 810.113 71.3885 809.167 73.1829V70.5906H803.913V88.4091H809.168V78.9826ZM793.237 88.715C788.245 88.715 784.081 85.052 784.081 79.4415C784.081 73.8279 788.24 70.2011 793.237 70.2011C798.234 70.2011 802.43 73.8279 802.43 79.4415C802.43 85.0551 798.23 88.715 793.237 88.715ZM793.237 83.5272C795.429 83.5272 797.247 81.9219 797.247 79.4431C797.247 77.0384 795.431 75.3969 793.237 75.3969C792.709 75.3886 792.185 75.4879 791.697 75.6888C791.208 75.8897 790.766 76.1879 790.396 76.5653C790.024 76.9447 789.733 77.395 789.538 77.8894C789.344 78.3838 789.251 78.9121 789.265 79.4431C789.267 81.9251 791.082 83.5272 793.237 83.5272ZM774.656 75.359C776.206 75.359 777.568 76.5811 777.568 78.907V88.4123H782.788V78.292C782.788 72.9117 780.172 70.2027 775.979 70.2027C774.733 70.2027 772.387 70.5811 770.684 73.369C769.7 71.3081 767.809 70.2389 765.015 70.2389C764.045 70.234 763.094 70.5086 762.276 71.0298C761.458 71.5511 760.807 72.2969 760.401 73.1782V70.5922H755.141V88.4107H760.397V78.9826C760.397 76.2736 761.873 75.3574 763.46 75.3574C764.974 75.3574 766.333 76.5401 766.373 78.7918V88.4107H771.63V78.9826C771.63 76.3919 772.992 75.359 774.656 75.359Z" fill="white"/>
</g>
<path d="M1038.02 90.6103L1040 85.986C1042.15 87.5916 1045 88.4266 1047.82 88.4266C1049.9 88.4266 1051.21 87.6238 1051.21 86.4034C1051.18 82.9994 1038.75 85.6648 1038.66 77.1227C1038.63 72.7874 1042.47 69.4476 1047.91 69.4476C1051.15 69.4476 1054.38 70.2504 1056.68 72.0809L1054.83 76.8015C1052.71 75.4528 1050.09 74.4894 1047.59 74.4894C1045.89 74.4894 1044.77 75.2922 1044.77 76.3198C1044.81 79.6596 1057.33 77.8292 1057.45 85.986C1057.45 90.4176 1053.71 93.5326 1048.33 93.5326C1044.39 93.5326 1040.77 92.6013 1038.02 90.6103Z" fill="white"/>
<path d="M1114.19 84.3161C1113.2 86.0502 1111.34 87.2384 1109.2 87.2384C1106.03 87.2384 1103.47 84.6693 1103.47 81.4901C1103.47 78.3109 1106.03 75.7418 1109.2 75.7418C1111.34 75.7418 1113.2 76.93 1114.19 78.6641L1119.67 75.6133C1117.62 71.9524 1113.68 69.4476 1109.2 69.4476C1102.57 69.4476 1097.19 74.8426 1097.19 81.4901C1097.19 88.1376 1102.57 93.5326 1109.2 93.5326C1113.71 93.5326 1117.62 91.0599 1119.67 87.3669L1114.19 84.3161Z" fill="white"/>
<path d="M1067.06 59.4603H1060.21V93.0831H1067.06V59.4603Z" fill="white"/>
<path d="M1122.36 59.4603V93.0831H1129.21V82.9995L1137.34 93.0831H1146.12L1135.77 81.1048L1145.35 69.9293H1136.96L1129.21 79.2101V59.4603H1122.36Z" fill="white"/>
<path d="M1087.42 84.3803C1086.43 86.0181 1084.38 87.2384 1082.08 87.2384C1078.91 87.2384 1076.35 84.6693 1076.35 81.4901C1076.35 78.3109 1078.91 75.7418 1082.08 75.7418C1084.38 75.7418 1086.43 77.0263 1087.42 78.6962V84.3803ZM1087.42 69.9293V72.6589C1086.3 70.7642 1083.52 69.4476 1080.6 69.4476C1074.58 69.4476 1069.84 74.7784 1069.84 81.458C1069.84 88.1376 1074.58 93.5326 1080.6 93.5326C1083.52 93.5326 1086.3 92.216 1087.42 90.3213V93.0509H1094.28V69.9293H1087.42Z" fill="white"/>
<path d="M995.655 84.3482C995.655 86.6925 993.765 88.5872 991.428 88.5872C989.091 88.5872 987.201 86.6925 987.201 84.3482C987.201 82.0039 989.091 80.1093 991.428 80.1093H995.655V84.3482Z" fill="white"/>
<path d="M997.768 84.3482C997.768 82.0039 999.657 80.1093 1001.99 80.1093C1004.33 80.1093 1006.22 82.0039 1006.22 84.3482V94.9456C1006.22 97.2899 1004.33 99.1846 1001.99 99.1846C999.657 99.1846 997.768 97.2899 997.768 94.9456V84.3482Z" fill="white"/>
<path d="M1001.99 67.3281C999.657 67.3281 997.768 65.4334 997.768 63.0891C997.768 60.7449 999.657 58.8502 1001.99 58.8502C1004.33 58.8502 1006.22 60.7449 1006.22 63.0891V67.3281H1001.99Z" fill="white"/>
<path d="M1001.99 69.4797C1004.33 69.4797 1006.22 71.3744 1006.22 73.7187C1006.22 76.063 1004.33 77.9577 1001.99 77.9577H991.396C989.059 77.9577 987.17 76.063 987.17 73.7187C987.17 71.3744 989.059 69.4797 991.396 69.4797H1001.99Z" fill="white"/>
<path d="M1018.93 73.7186C1018.93 71.3744 1020.82 69.4797 1023.16 69.4797C1025.5 69.4797 1027.39 71.3744 1027.39 73.7186C1027.39 76.0629 1025.5 77.9576 1023.16 77.9576H1018.93V73.7186Z" fill="white"/>
<path d="M1016.82 73.7187C1016.82 76.0629 1014.93 77.9576 1012.59 77.9576C1010.26 77.9576 1008.37 76.0629 1008.37 73.7187V63.0891C1008.37 60.7449 1010.26 58.8502 1012.59 58.8502C1014.93 58.8502 1016.82 60.7449 1016.82 63.0891V73.7187Z" fill="white"/>
<path d="M1012.59 90.7067C1014.93 90.7067 1016.82 92.6014 1016.82 94.9457C1016.82 97.29 1014.93 99.1847 1012.59 99.1847C1010.26 99.1847 1008.37 97.29 1008.37 94.9457V90.7067H1012.59Z" fill="white"/>
<path d="M1012.59 88.5872C1010.26 88.5872 1008.37 86.6925 1008.37 84.3482C1008.37 82.0039 1010.26 80.1093 1012.59 80.1093H1023.19C1025.53 80.1093 1027.42 82.0039 1027.42 84.3482C1027.42 86.6925 1025.53 88.5872 1023.19 88.5872H1012.59Z" fill="white"/>
<g clip-path="url(#clip2_6_423)">
<path d="M1242.85 66.7873L1231.3 74.1512L1242.85 81.5151L1231.3 88.879L1219.74 81.4753L1231.3 74.1114L1219.74 66.7873L1231.3 59.4235L1242.85 66.7873ZM1231.24 91.2473L1242.79 83.8835L1254.35 91.2473L1242.79 98.6112L1231.24 91.2473ZM1242.85 81.4753L1254.41 74.1114L1242.85 66.7873L1254.35 59.4235L1265.91 66.7873L1254.35 74.1512L1265.91 81.5151L1254.35 88.879L1242.85 81.4753Z" fill="white"/>
<path d="M1274.98 66.7873H1284.32C1290.28 66.7873 1295.2 70.2305 1295.2 78.0919V79.7438C1295.2 87.6649 1290.6 91.2274 1284.5 91.2274H1274.98V66.7873ZM1280.2 71.2256V86.7693H1284.2C1287.59 86.7693 1289.86 84.5602 1289.86 79.6443V78.3506C1289.86 73.4347 1287.47 71.2256 1284.02 71.2256H1280.2ZM1297.97 71.4644H1302.15L1302.83 76.0618C1303.63 72.9372 1305.66 71.2654 1309.35 71.2654H1310.64V76.5395H1308.49C1304.25 76.5395 1303.21 78.0123 1303.21 82.1918V91.2872H1298.05V71.4644H1297.97ZM1311.68 81.7738V81.2166C1311.68 74.5891 1315.92 70.9668 1321.7 70.9668C1327.6 70.9668 1331.72 74.5891 1331.72 81.2166V81.7738C1331.72 88.2819 1327.72 91.7847 1321.7 91.7847C1315.31 91.725 1311.68 88.3018 1311.68 81.7738ZM1326.44 81.7141V81.2166C1326.44 77.5346 1324.59 75.3255 1321.64 75.3255C1318.75 75.3255 1316.84 77.3555 1316.84 81.2166V81.7141C1316.84 85.2766 1318.69 87.3067 1321.64 87.3067C1324.59 87.247 1326.44 85.2766 1326.44 81.7141ZM1334.43 71.4644H1338.74L1339.24 75.206C1340.27 72.6983 1342.48 70.9668 1345.75 70.9668C1350.79 70.9668 1354.12 74.5891 1354.12 81.2962V81.8534C1354.12 88.3615 1350.43 91.8046 1345.75 91.8046C1342.62 91.8046 1340.47 90.3915 1339.42 88.1227V98.1336H1334.37L1334.43 71.4644ZM1348.88 81.7141V81.2763C1348.88 77.3356 1346.85 75.3852 1344.14 75.3852C1341.25 75.3852 1339.34 77.5943 1339.34 81.2763V81.6544C1339.34 85.1572 1341.19 87.3664 1344.08 87.3664C1347.05 87.3067 1348.88 85.416 1348.88 81.7141ZM1361.75 87.6251L1361.31 91.2473H1356.89V64.8369H1361.93V74.9672C1363.05 72.3799 1365.26 70.9668 1368.39 70.9668C1373.13 71.0265 1376.64 74.2905 1376.64 80.8583V81.4753C1376.64 88.0431 1373.31 91.8046 1368.27 91.8046C1364.94 91.725 1362.79 90.1925 1361.75 87.6251ZM1371.34 81.4753V80.9777C1371.34 77.3555 1369.36 75.3255 1366.59 75.3255C1363.77 75.3255 1361.79 77.5943 1361.79 81.0374V81.4753C1361.79 85.1572 1363.71 87.3067 1366.53 87.3067C1369.56 87.3067 1371.34 85.416 1371.34 81.4753ZM1378.85 81.7738V81.2166C1378.85 74.5891 1383.09 70.9668 1388.87 70.9668C1394.77 70.9668 1398.89 74.5891 1398.89 81.2166V81.7738C1398.89 88.2819 1394.83 91.7847 1388.87 91.7847C1382.48 91.725 1378.85 88.3018 1378.85 81.7738ZM1393.65 81.7141V81.2166C1393.65 77.5346 1391.8 75.3255 1388.85 75.3255C1385.96 75.3255 1384.05 77.3555 1384.05 81.2166V81.7141C1384.05 85.2766 1385.9 87.3067 1388.85 87.3067C1391.82 87.247 1393.65 85.2766 1393.65 81.7141ZM1405.65 80.9777L1398.7 71.4644H1404.65L1408.66 77.4152L1412.72 71.4644H1418.62L1411.57 80.918L1419 91.2473H1413.16L1408.62 84.6796L1404.2 91.2473H1398.1L1405.65 80.9777Z" fill="white"/>
</g>
<defs>
<clipPath id="clip0_6_423">
<rect width="129.519" height="29.3576" fill="white" transform="translate(308 64.3386)"/>
</clipPath>
<clipPath id="clip1_6_423">
<rect width="199.26" height="36.2678" fill="white" transform="translate(714.286 60.8834)"/>
</clipPath>
<clipPath id="clip2_6_423">
<rect width="199.26" height="39.1877" fill="white" transform="translate(1219.74 59.4235)"/>
</clipPath>
</defs>
</svg>
